<?xml version="1.0" encoding="UTF-8" standalone="no"?>
<!-- Created with Inkscape (http://www.inkscape.org/) -->

<svg
   xmlns:dc="http://purl.org/dc/elements/1.1/"
   xmlns:cc="http://creativecommons.org/ns#"
   xmlns:rdf="http://www.w3.org/1999/02/22-rdf-syntax-ns#"
   xmlns:svg="http://www.w3.org/2000/svg"
   xmlns="http://www.w3.org/2000/svg"
   xmlns:sodipodi="http://sodipodi.sourceforge.net/DTD/sodipodi-0.dtd"
   xmlns:inkscape="http://www.inkscape.org/namespaces/inkscape"
   width="64"
   height="64"
   id="svg2"
   version="1.1"
   inkscape:version="0.48.5 r10040"
   inkscape:export-filename="/Users/mauriciofernandesdecastro/Desktop/instrument64.png"
   inkscape:export-xdpi="90"
   inkscape:export-ydpi="90"
   sodipodi:docname="instrument.svg">
  <defs
     id="defs4" />
  <sodipodi:namedview
     id="base"
     pagecolor="#ffffff"
     bordercolor="#666666"
     borderopacity="1.0"
     inkscape:pageopacity="0.0"
     inkscape:pageshadow="2"
     inkscape:zoom="6.21875"
     inkscape:cx="32"
     inkscape:cy="32"
     inkscape:document-units="px"
     inkscape:current-layer="layer1"
     showgrid="true"
     objecttolerance="2"
     gridtolerance="2"
     guidetolerance="2"
     inkscape:window-width="951"
     inkscape:window-height="604"
     inkscape:window-x="0"
     inkscape:window-y="0"
     inkscape:window-maximized="0">
    <inkscape:grid
       type="xygrid"
       id="grid2985"
       empspacing="5"
       visible="true"
       enabled="true"
       snapvisiblegridlinesonly="true" />
  </sodipodi:namedview>
  <metadata
     id="metadata7">
    <rdf:RDF>
      <cc:Work
         rdf:about="">
        <dc:format>image/svg+xml</dc:format>
        <dc:type
           rdf:resource="http://purl.org/dc/dcmitype/StillImage" />
        <dc:title></dc:title>
      </cc:Work>
    </rdf:RDF>
  </metadata>
  <g
     inkscape:label="Camada 1"
     inkscape:groupmode="layer"
     id="layer1"
     transform="translate(0,-988.36218)">
    <rect
       style="fill:#cccccc;fill-opacity:1;fill-rule:nonzero;stroke:none"
       id="rect3832"
       width="65"
       height="64.482414"
       x="0"
       y="-0.16080402"
       transform="translate(0,988.36218)" />
    <path
       style="fill:#ffffff;fill-opacity:1;fill-rule:nonzero;stroke:none"
       d="m 33.125,1006.4434 c -11.49045,0 -20.81069,9.2561 -20.81069,20.662 0,2.6803 0.52025,5.2305 1.45675,7.5811 l 2.1108,0 0,0.1486 10.99993,0 c 0.8264,1.1532 2.12743,2.0538 3.7162,2.5271 3.35126,0.9982 7.05538,-0.1243 8.77022,-2.5271 l 11.35668,0 0,-0.1486 1.75405,0 c 0.9365,-2.3506 1.45675,-4.9008 1.45675,-7.5811 0,-11.4059 -9.32024,-20.662 -20.81069,-20.662 z"
       id="path4272"
       inkscape:connector-curvature="0" />
    <path
       style="fill:#000000;fill-opacity:1;fill-rule:nonzero;stroke:none"
       d="m 33.125,1005.6434 c -12.07811,0 -21.875,9.7295 -21.875,21.7188 0,2.8173 0.54685,5.4979 1.53125,7.9687 l 2.21875,0 0,0.1563 11.5625,0 c 0.86866,1.2121 2.23622,2.1588 3.90625,2.6562 3.52266,1.0493 7.41621,-0.1306 9.21875,-2.6562 l 11.9375,0 0,-0.1563 1.84375,0 c 0.9844,-2.4708 1.53125,-5.1514 1.53125,-7.9687 0,-11.9893 -9.79689,-21.7188 -21.875,-21.7188 z m 0,4.9688 c 9.31668,0 16.875,7.5018 16.875,16.75 0,1.4696 -0.20559,2.8952 -0.5625,4.25 l -11.59375,0 c -0.84988,2.0557 -3.54864,3.208 -6.09375,2.5625 -1.56153,-0.3961 -2.69952,-1.3839 -3.1875,-2.5625 l -11.75,0 c -0.35691,-1.3548 -0.5625,-2.7804 -0.5625,-4.25 0,-9.2482 7.55832,-16.75 16.875,-16.75 z m -2.34375,1.0625 c -0.63832,0 -1.15625,0.4852 -1.15625,1.0625 0,0.5772 0.51793,1.0312 1.15625,1.0312 0.63832,0 1.15625,-0.454 1.15625,-1.0312 0,-0.5773 -0.51793,-1.0625 -1.15625,-1.0625 z m 6.28125,0.6875 c -0.63832,0 -1.15625,0.454 -1.15625,1.0312 0,0.5773 0.51793,1.0625 1.15625,1.0625 0.63832,0 1.15625,-0.4852 1.15625,-1.0625 0,-0.5772 -0.51793,-1.0312 -1.15625,-1.0312 z m -8.59375,0.9375 -1.625,0.9375 3.5,13.4062 c -0.224,0.4392 -0.34375,0.9132 -0.34375,1.4375 0,1.804 1.50372,3.2813 3.34375,3.2813 1.84002,0 3.3125,-1.4773 3.3125,-3.2813 0,-1.5784 -1.13807,-2.8829 -2.65625,-3.1875 l -5.53125,-12.5937 z M 25,1014.4247 c -0.63832,0 -1.15625,0.454 -1.15625,1.0312 0,0.5773 0.51793,1.0625 1.15625,1.0625 0.63832,0 1.15625,-0.4852 1.15625,-1.0625 0,-0.5772 -0.51793,-1.0312 -1.15625,-1.0312 z m 17.6875,1.3125 c -0.63832,0 -1.15625,0.4852 -1.15625,1.0625 0,0.5772 0.51793,1.0312 1.15625,1.0312 0.63832,0 1.15625,-0.454 1.15625,-1.0312 0,-0.5773 -0.51793,-1.0625 -1.15625,-1.0625 z m -21.90625,4.1562 c -0.63832,0 -1.15625,0.454 -1.15625,1.0313 0,0.5772 0.51793,1.0312 1.15625,1.0312 0.63832,0 1.15625,-0.454 1.15625,-1.0312 0,-0.5773 -0.51793,-1.0313 -1.15625,-1.0313 z m 24.96875,1 c -0.63832,0 -1.15625,0.454 -1.15625,1.0313 0,0.5772 0.51793,1.0625 1.15625,1.0625 0.63832,0 1.15625,-0.4853 1.15625,-1.0625 0,-0.5773 -0.51793,-1.0313 -1.15625,-1.0313 z m 1.59375,4.9688 c -0.63832,0 -1.15625,0.4852 -1.15625,1.0625 0,0.5772 0.51793,1.0312 1.15625,1.0312 0.63832,0 1.15625,-0.454 1.15625,-1.0312 0,-0.5773 -0.51793,-1.0625 -1.15625,-1.0625 z m -28.5,0.4375 c -0.63832,0 -1.15625,0.4852 -1.15625,1.0625 0,0.5772 0.51793,1.0312 1.15625,1.0312 0.63832,0 1.15625,-0.454 1.15625,-1.0312 0,-0.5773 -0.51793,-1.0625 -1.15625,-1.0625 z"
       id="path4180"
       inkscape:connector-curvature="0" />
  </g>
</svg>
